<mxfile host="app.diagrams.net" modified="2023-09-22T04:15:53.392Z" agent="Mozilla/5.0 (Windows NT 10.0; Win64; x64) AppleWebKit/537.36 (KHTML, like Gecko) Chrome/117.0.0.0 Safari/537.36" etag="k3iUulQQq8Y6QxTOI6VJ" version="21.7.5" type="device">
  <diagram name="PÃ¡gina-1" id="qbURYlXZeZJNLAL3W9JK">
    <mxGraphModel dx="1434" dy="802" grid="1" gridSize="10" guides="1" tooltips="1" connect="1" arrows="1" fold="1" page="1" pageScale="1" pageWidth="827" pageHeight="1169" math="0" shadow="0">
      <root>
        <mxCell id="0" />
        <mxCell id="1" parent="0" />
        <mxCell id="t-wgTpeH0HqDWkriodTE-76" value="" style="edgeStyle=orthogonalEdgeStyle;rounded=0;orthogonalLoop=1;jettySize=auto;html=1;" edge="1" parent="1" source="t-wgTpeH0HqDWkriodTE-1" target="t-wgTpeH0HqDWkriodTE-74">
          <mxGeometry relative="1" as="geometry" />
        </mxCell>
        <mxCell id="t-wgTpeH0HqDWkriodTE-1" value="void calcularFibonacci(int n)" style="ellipse;whiteSpace=wrap;html=1;" vertex="1" parent="1">
          <mxGeometry x="321" y="20" width="186" height="70" as="geometry" />
        </mxCell>
        <mxCell id="t-wgTpeH0HqDWkriodTE-77" value="" style="edgeStyle=orthogonalEdgeStyle;rounded=0;orthogonalLoop=1;jettySize=auto;html=1;" edge="1" parent="1" source="t-wgTpeH0HqDWkriodTE-74" target="t-wgTpeH0HqDWkriodTE-75">
          <mxGeometry relative="1" as="geometry" />
        </mxCell>
        <mxCell id="t-wgTpeH0HqDWkriodTE-74" value="int cont, ant, sig, res" style="rounded=0;whiteSpace=wrap;html=1;" vertex="1" parent="1">
          <mxGeometry x="354" y="120" width="120" height="50" as="geometry" />
        </mxCell>
        <mxCell id="t-wgTpeH0HqDWkriodTE-82" style="edgeStyle=orthogonalEdgeStyle;rounded=0;orthogonalLoop=1;jettySize=auto;html=1;entryX=0.5;entryY=0;entryDx=0;entryDy=0;" edge="1" parent="1" source="t-wgTpeH0HqDWkriodTE-75" target="t-wgTpeH0HqDWkriodTE-80">
          <mxGeometry relative="1" as="geometry" />
        </mxCell>
        <mxCell id="t-wgTpeH0HqDWkriodTE-90" style="edgeStyle=orthogonalEdgeStyle;rounded=0;orthogonalLoop=1;jettySize=auto;html=1;entryX=0.5;entryY=0;entryDx=0;entryDy=0;" edge="1" parent="1" source="t-wgTpeH0HqDWkriodTE-75" target="t-wgTpeH0HqDWkriodTE-86">
          <mxGeometry relative="1" as="geometry">
            <Array as="points">
              <mxPoint x="570" y="240" />
              <mxPoint x="570" y="520" />
              <mxPoint x="414" y="520" />
            </Array>
          </mxGeometry>
        </mxCell>
        <mxCell id="t-wgTpeH0HqDWkriodTE-75" value="Desde cont = 0, ant = -1, sig = 1, res = 0&lt;br&gt;Mientras cont &amp;lt; n&lt;br&gt;Incremento cont++" style="shape=hexagon;perimeter=hexagonPerimeter2;whiteSpace=wrap;html=1;fixedSize=1;" vertex="1" parent="1">
          <mxGeometry x="291" y="200" width="246" height="80" as="geometry" />
        </mxCell>
        <mxCell id="t-wgTpeH0HqDWkriodTE-88" style="edgeStyle=orthogonalEdgeStyle;rounded=0;orthogonalLoop=1;jettySize=auto;html=1;entryX=0.5;entryY=0;entryDx=0;entryDy=0;" edge="1" parent="1" source="t-wgTpeH0HqDWkriodTE-80" target="t-wgTpeH0HqDWkriodTE-84">
          <mxGeometry relative="1" as="geometry" />
        </mxCell>
        <mxCell id="t-wgTpeH0HqDWkriodTE-80" value="&lt;div&gt;ant = sig&lt;/div&gt;&lt;div&gt;sig = res&lt;/div&gt;&lt;div&gt;res = ant + sig&lt;/div&gt;" style="rounded=0;whiteSpace=wrap;html=1;" vertex="1" parent="1">
          <mxGeometry x="354" y="310" width="120" height="60" as="geometry" />
        </mxCell>
        <mxCell id="t-wgTpeH0HqDWkriodTE-89" style="edgeStyle=orthogonalEdgeStyle;rounded=0;orthogonalLoop=1;jettySize=auto;html=1;entryX=0;entryY=0.5;entryDx=0;entryDy=0;" edge="1" parent="1" source="t-wgTpeH0HqDWkriodTE-84" target="t-wgTpeH0HqDWkriodTE-75">
          <mxGeometry relative="1" as="geometry">
            <Array as="points">
              <mxPoint x="414" y="470" />
              <mxPoint x="271" y="470" />
              <mxPoint x="271" y="240" />
            </Array>
          </mxGeometry>
        </mxCell>
        <mxCell id="t-wgTpeH0HqDWkriodTE-84" value="printf(&quot;%d, &quot;, res)" style="shape=document;whiteSpace=wrap;html=1;boundedLbl=1;" vertex="1" parent="1">
          <mxGeometry x="354" y="400" width="120" height="60" as="geometry" />
        </mxCell>
        <mxCell id="t-wgTpeH0HqDWkriodTE-86" value="return" style="ellipse;whiteSpace=wrap;html=1;" vertex="1" parent="1">
          <mxGeometry x="364" y="550" width="100" height="60" as="geometry" />
        </mxCell>
      </root>
    </mxGraphModel>
  </diagram>
</mxfile>
